{"asset":{"version":"2.0","generator":"Blockbench 5.1.4 glTF exporter"},"scenes":[{"nodes":[0],"name":"blockbench_export"}],"scene":0,"nodes":[{"translation":[0,0.275,0],"name":"sphere","mesh":0}],"bufferViews":[{"buffer":0,"byteOffset":0,"byteLength":5832,"target":34962,"byteStride":12},{"buffer":0,"byteOffset":5832,"byteLength":5832,"target":34962,"byteStride":12},{"buffer":0,"byteOffset":11664,"byteLength":3888,"target":34962,"byteStride":8},{"buffer":0,"byteOffset":15552,"byteLength":1356,"target":34963}],"buffers":[{"byteLength":16908,"uri":"data:application/octet-stream;base64,"}],"accessors":[{"bufferView":0,"componentType":5126,"count":486,"max":[0.6587399840354919,1.4328124523162842,0.46875],"min":[-0.6587399840354919,-0.45153874158859253,-0.4744187593460083],"type":"VEC3"},{"bufferView":1,"componentType":5126,"count":486,"max":[0.9994863271713257,0.951056718826294,1],"min":[-0.9994863271713257,-0.9555578827857971,-0.9396924376487732],"type":"VEC3"},{"bufferView":2,"componentType":5126,"count":486,"max":[3.8125,3.891900062561035],"min":[0,0],"type":"VEC2"},{"bufferView":3,"componentType":5123,"count":678,"max":[485],"min":[0],"type":"SCALAR"}],"materials":[{"pbrMetallicRoughness":{"metallicFactor":0,"roughnessFactor":1},"alphaMode":"MASK","alphaCutoff":0.05,"doubleSided":true}],"meshes":[{"primitives":[{"mode":4,"attributes":{"POSITION":0,"NORMAL":1,"TEXCOORD_0":2},"indices":3,"material":0}]}]}